<svg width="27" height="28" viewBox="0 0 27 28" fill="none" xmlns="http://www.w3.org/2000/svg">
    <path d="M27 13.8599C27 21.3157 20.9558 27.3599 13.5 27.3599C6.04416 27.3599 0 21.3157 0 13.8599C0 6.40402 6.04416 0.359863 13.5 0.359863C20.9558 0.359863 27 6.40402 27 13.8599Z" fill="#97FDC6"/>
    <path fill-rule="evenodd" clip-rule="evenodd" d="M14.6151 1.35986C14.6151 0.94565 14.2793 0.609863 13.8651 0.609863C13.4509 0.609863 13.1151 0.94565 13.1151 1.35986V2.35986C13.1151 2.77408 13.4509 3.10986 13.8651 3.10986C14.2793 3.10986 14.6151 2.77408 14.6151 2.35986V1.35986ZM7.51212 6.79042C7.82661 6.52085 8.30009 6.55728 8.56965 6.87177L13.2502 12.3324V8.35986C13.2502 7.94565 13.586 7.60986 14.0002 7.60986C14.4144 7.60986 14.7502 7.94565 14.7502 8.35986V13.5489C14.7502 14.5237 13.5374 14.9724 12.903 14.2322L7.43077 7.84796C7.1612 7.53346 7.19762 7.05999 7.51212 6.79042ZM6.5881 13.495C6.5881 13.9092 6.25232 14.245 5.8381 14.245H2.18945C1.77524 14.245 1.43945 13.9092 1.43945 13.495C1.43945 13.0808 1.77524 12.745 2.18945 12.745H5.8381C6.25232 12.745 6.5881 13.0808 6.5881 13.495ZM24.811 14.245C25.2252 14.245 25.561 13.9092 25.561 13.495C25.561 13.0808 25.2252 12.745 24.811 12.745H21.1624C20.7481 12.745 20.4124 13.0808 20.4124 13.495C20.4124 13.9092 20.7481 14.245 21.1624 14.245H24.811ZM13.8651 20.772C14.2793 20.772 14.6151 21.1078 14.6151 21.522V25.1707C14.6151 25.5849 14.2793 25.9207 13.8651 25.9207C13.4509 25.9207 13.1151 25.5849 13.1151 25.1707V21.522C13.1151 21.1078 13.4509 20.772 13.8651 20.772Z" fill="#050C25"/>
</svg>