<svg width="41" height="29" viewBox="0 0 41 29" fill="none" xmlns="http://www.w3.org/2000/svg">
    <g filter="url(#filter0_d_1144_4902)">
        <path fill-rule="evenodd" clip-rule="evenodd" d="M13.351 7.06213C9.50078 7.77104 6.82697 11.0491 7.00873 14.8377C7.17498 18.303 9.63685 21.1488 13.1157 21.897C13.7543 22.0344 15.4807 22.0343 16.1196 21.8969C19.0119 21.2749 21.2651 19.1567 21.9804 16.3872C22.6611 13.7522 21.8825 10.9967 19.9234 9.10767C18.8968 8.1177 17.6028 7.43284 16.1474 7.10916C15.6069 6.98896 13.904 6.96033 13.351 7.06213ZM26.2566 7.47853C25.2282 7.7503 24.3055 8.78409 23.6874 10.357C22.9648 12.1961 22.7762 14.8833 23.2196 17.0244C23.5553 18.646 24.1514 19.8965 24.9848 20.7274C25.4885 21.2297 25.895 21.4617 26.4489 21.5629C27.8004 21.8099 29.223 20.5242 29.9628 18.3871C30.3489 17.2717 30.5228 16.2407 30.5612 14.8377C30.6226 12.6016 30.179 10.6378 29.2744 9.14045C28.9709 8.63817 28.2417 7.89462 27.8563 7.69445C27.3109 7.41122 26.7814 7.33976 26.2566 7.47853ZM32.5559 8.17142C32.0615 8.37034 31.6382 9.86088 31.4138 12.1931C31.3302 13.0633 31.3298 15.8795 31.4132 16.7823C31.6376 19.209 32.075 20.6878 32.6159 20.8486C32.7588 20.8911 33.023 20.6818 33.1587 20.4186C34.1646 18.4684 34.3005 11.937 33.3926 9.18546C33.2127 8.6403 33.097 8.4238 32.8971 8.25859C32.7182 8.11059 32.7115 8.10888 32.5559 8.17142Z" fill="#A2E7D2"/>
    </g>
    <defs>
        <filter id="filter0_d_1144_4902" x="0" y="0" width="41" height="29" filterUnits="userSpaceOnUse" color-interpolation-filters="sRGB">
            <feFlood flood-opacity="0" result="BackgroundImageFix"/>
            <feColorMatrix in="SourceAlpha" type="matrix" values="0 0 0 0 0 0 0 0 0 0 0 0 0 0 0 0 0 0 127 0" result="hardAlpha"/>
            <feOffset/>
            <feGaussianBlur stdDeviation="3.5"/>
            <feComposite in2="hardAlpha" operator="out"/>
            <feColorMatrix type="matrix" values="0 0 0 0 0.842313 0 0 0 0 0.961488 0 0 0 0 0.999123 0 0 0 0.3 0"/>
            <feBlend mode="normal" in2="BackgroundImageFix" result="effect1_dropShadow_1144_4902"/>
            <feBlend mode="normal" in="SourceGraphic" in2="effect1_dropShadow_1144_4902" result="shape"/>
        </filter>
    </defs>
</svg>