<svg width="29" height="38" viewBox="0 0 29 38" fill="none" xmlns="http://www.w3.org/2000/svg">
    <g filter="url(#filter0_d_1144_4899)">
        <path d="M21.684 25.2349C21.5396 25.1544 21.3638 25.1622 21.2266 25.2554C20.1884 25.9605 19.1358 26.318 18.0979 26.318C17.5402 26.318 17.061 26.1893 16.6311 25.9234C16.3389 25.7447 16.0675 25.4322 15.9702 25.1606C15.8757 24.9025 15.8768 24.2074 15.8782 23.2454L15.8787 17.38H20.596C20.8428 17.38 21.0427 17.1733 21.0427 16.9184V12.7971C21.0427 12.5422 20.8428 12.3355 20.596 12.3355H15.8787V7.46154C15.8787 7.20668 15.6787 7 15.4319 7H12.254C12.0282 7 11.8378 7.17418 11.8105 7.40588C11.6777 8.5347 11.43 9.47199 11.0736 10.1932C10.726 10.904 10.2558 11.5225 9.67518 12.0324C9.21002 12.4423 8.41372 12.8388 7.30826 13.2111C7.12438 13.273 7 13.4501 7 13.6499V16.9185C7 17.1734 7.19997 17.3801 7.44676 17.3801H10.0337V25.0107C10.0337 26.1351 10.1492 26.9812 10.3869 27.5977C10.629 28.224 11.0589 28.8138 11.6649 29.3509C12.2609 29.8786 12.9864 30.2913 13.8234 30.5784C14.6349 30.8518 15.2812 31 16.3709 31C17.2921 31 18.1702 30.9013 18.9811 30.7066C19.7782 30.5144 20.6803 30.1748 21.6624 29.6973C21.819 29.6211 21.9189 29.4585 21.9189 29.2797V25.6412C21.9187 25.4714 21.8287 25.3154 21.684 25.2349Z" fill="#A2E7D2"/>
    </g>
    <defs>
        <filter id="filter0_d_1144_4899" x="0" y="0" width="28.9189" height="38" filterUnits="userSpaceOnUse" color-interpolation-filters="sRGB">
            <feFlood flood-opacity="0" result="BackgroundImageFix"/>
            <feColorMatrix in="SourceAlpha" type="matrix" values="0 0 0 0 0 0 0 0 0 0 0 0 0 0 0 0 0 0 127 0" result="hardAlpha"/>
            <feOffset/>
            <feGaussianBlur stdDeviation="3.5"/>
            <feComposite in2="hardAlpha" operator="out"/>
            <feColorMatrix type="matrix" values="0 0 0 0 0.842313 0 0 0 0 0.961488 0 0 0 0 0.999123 0 0 0 0.3 0"/>
            <feBlend mode="normal" in2="BackgroundImageFix" result="effect1_dropShadow_1144_4899"/>
            <feBlend mode="normal" in="SourceGraphic" in2="effect1_dropShadow_1144_4899" result="shape"/>
        </filter>
    </defs>
</svg>