<svg width="34" height="35" viewBox="0 0 34 35" fill="none" xmlns="http://www.w3.org/2000/svg">
<g filter="url(#filter0_d_1144_4896)">
    <path fill-rule="evenodd" clip-rule="evenodd" d="M10.8579 7.78965C9.87383 7.92362 9.06192 8.29941 8.3815 8.93591C7.61878 9.64937 7.18108 10.5752 7.04981 11.7525C7.02028 12.0172 7 13.2975 7 14.8953V17.5914L8.05565 17.5598C12.2154 17.4351 13.7102 17.0582 15.0016 15.8087C16.0325 14.8113 16.488 13.6186 16.6943 11.3768C16.773 10.5224 16.8592 8.83909 16.8595 8.14904L16.8598 7.7168L14.0911 7.72161C12.0471 7.72516 11.2008 7.74297 10.8579 7.78965ZM17.1172 7.9154C17.1276 8.02465 17.1482 8.53455 17.163 9.04857C17.2275 11.2839 17.3958 12.7134 17.7106 13.6981C18.155 15.0884 18.9843 16.0699 20.2477 16.7012C21.3055 17.2297 22.8943 17.4703 25.9136 17.5593L27 17.5913V14.8952C27 11.511 26.958 11.0914 26.5304 10.1968C25.8756 8.82703 24.69 7.99656 23.0903 7.78684C22.6681 7.73152 21.9831 7.7168 19.8272 7.7168H17.0985L17.1172 7.9154ZM7.00079 20.5366C7.00126 22.0313 7.02168 23.4434 7.04622 23.6747C7.1672 24.8161 7.6142 25.7699 8.36149 26.4811C9.0636 27.1494 9.84271 27.5049 10.9131 27.6453C11.3489 27.7024 12.0036 27.7168 14.1666 27.7168H16.8745L16.8424 26.6303C16.7214 22.5349 16.322 20.9487 15.0962 19.6956C14.135 18.7132 12.9178 18.2337 10.8551 18.0252C10.2451 17.9636 9.65378 17.931 7.45561 17.8383L7 17.8191L7.00079 20.5366ZM26.7521 17.8376C26.7471 17.8412 26.2834 17.8577 25.7217 17.8744C21.7646 17.9915 20.1846 18.4062 18.935 19.6557C17.7127 20.8781 17.2758 22.5035 17.1639 26.2448C17.1493 26.7332 17.1272 27.2641 17.115 27.4247L17.0927 27.7168H19.817C22.7825 27.7168 23.2906 27.6853 23.9857 27.4584C25.6779 26.906 26.7571 25.5303 26.9538 23.6747C26.9783 23.4434 26.9987 22.0296 26.9992 20.5327L27 17.8113L26.8806 17.8212C26.8149 17.8266 26.7571 17.834 26.7521 17.8376Z" fill="#A2E7D2"/>
</g>
<defs>
    <filter id="filter0_d_1144_4896" x="0" y="0.716797" width="34" height="34" filterUnits="userSpaceOnUse" color-interpolation-filters="sRGB">
        <feFlood flood-opacity="0" result="BackgroundImageFix"/>
        <feColorMatrix in="SourceAlpha" type="matrix" values="0 0 0 0 0 0 0 0 0 0 0 0 0 0 0 0 0 0 127 0" result="hardAlpha"/>
        <feOffset/>
        <feGaussianBlur stdDeviation="3.5"/>
        <feComposite in2="hardAlpha" operator="out"/>
        <feColorMatrix type="matrix" values="0 0 0 0 0.842313 0 0 0 0 0.961488 0 0 0 0 0.999123 0 0 0 0.3 0"/>
        <feBlend mode="normal" in2="BackgroundImageFix" result="effect1_dropShadow_1144_4896"/>
        <feBlend mode="normal" in="SourceGraphic" in2="effect1_dropShadow_1144_4896" result="shape"/>
    </filter>
</defs>
</svg>