<svg width="28" height="28" viewBox="0 0 28 28" fill="none" xmlns="http://www.w3.org/2000/svg">
    <path fill-rule="evenodd" clip-rule="evenodd" d="M13.9824 27.9648C21.7047 27.9648 27.9648 21.7047 27.9648 13.9824C27.9648 6.26014 21.7047 0 13.9824 0C6.26014 0 0 6.26014 0 13.9824C0 21.7047 6.26014 27.9648 13.9824 27.9648ZM12.647 16.4387C12.6756 16.9693 13.1142 17.3848 13.6455 17.3848H14.3202C14.8515 17.3848 15.2901 16.9693 15.3187 16.4387L15.8532 6.53644C15.8841 5.96381 15.4281 5.48254 14.8547 5.48254H13.1111C12.5376 5.48254 12.0816 5.96381 12.1125 6.53644L12.647 16.4387ZM12.6267 21.4024C12.9788 21.7881 13.4309 21.981 13.9829 21.981C14.5444 21.981 14.9964 21.7881 15.3391 21.4024C15.6912 21.0056 15.8673 20.5371 15.8673 19.9971C15.8673 19.4459 15.6912 18.983 15.3391 18.6083C14.9964 18.2335 14.5444 18.0461 13.9829 18.0461C13.4309 18.0461 12.9788 18.2335 12.6267 18.6083C12.2746 18.983 12.0985 19.4459 12.0985 19.9971C12.0985 20.5371 12.2746 21.0056 12.6267 21.4024Z" fill="#EE2D2D"/>
</svg>