<svg width="23" height="18" viewBox="0 0 23 18" fill="none" xmlns="http://www.w3.org/2000/svg">
    <path fill-rule="evenodd" clip-rule="evenodd" d="M11.5 16.2939C17.8513 16.2939 23 8.79395 23 8.79395C23 8.79395 17.8513 1.29395 11.5 1.29395C5.14873 1.29395 0 8.79395 0 8.79395C0 8.79395 5.14873 16.2939 11.5 16.2939ZM14 8.79395C14 10.1747 12.8807 11.2939 11.5 11.2939C10.1193 11.2939 9 10.1747 9 8.79395C9 7.41323 10.1193 6.29395 11.5 6.29395C12.8807 6.29395 14 7.41323 14 8.79395ZM16 8.79395C16 11.2792 13.9853 13.2939 11.5 13.2939C9.01472 13.2939 7 11.2792 7 8.79395C7 6.30866 9.01472 4.29395 11.5 4.29395C13.9853 4.29395 16 6.30866 16 8.79395Z" fill="#5E81B6"/>
</svg>