<svg width="23" height="20" viewBox="0 0 23 20" fill="none" xmlns="http://www.w3.org/2000/svg">
    <path d="M2.86637 5.97009C1.08221 7.67747 0 9.25391 0 9.25391C0 9.25391 5.14873 16.7539 11.5 16.7539C12.7925 16.7539 14.0351 16.4433 15.1947 15.9486L12.3776 13.6684C12.0937 13.7245 11.8003 13.7539 11.5 13.7539C9.03551 13.7539 7.03374 11.7727 7.00042 9.31617L2.86637 5.97009Z" fill="#5E81B6"/>
    <path d="M13.8879 9.99649L10.2763 7.07334C10.638 6.86993 11.0555 6.75391 11.5 6.75391C12.8807 6.75391 14 7.87319 14 9.25391C14 9.51248 13.9607 9.76189 13.8879 9.99649Z" fill="#5E81B6"/>
    <path d="M15.5059 11.3061C15.8217 10.6908 16 9.99315 16 9.25391C16 6.76862 13.9853 4.75391 11.5 4.75391C10.4225 4.75391 9.43353 5.13258 8.65878 5.7641L5.92515 3.55151C7.57648 2.51462 9.47725 1.75391 11.5 1.75391C17.8513 1.75391 23 9.25391 23 9.25391C23 9.25391 21.2966 11.7352 18.6407 13.8434L15.5059 11.3061Z" fill="#5E81B6"/>
    <rect y="2.49072" width="1.9691" height="26.305" rx="0.98455" transform="rotate(-51.0135 0 2.49072)" fill="#5E81B6"/>
</svg>