<svg width="37" height="37" viewBox="0 0 37 37" fill="none" xmlns="http://www.w3.org/2000/svg">
    <circle cx="18.5" cy="18.5" r="18" stroke="#97FDC6"/>
    <path fill-rule="evenodd" clip-rule="evenodd" d="M22.7755 15.7857C22.7755 18.3724 20.6786 20.4694 18.0919 20.4694C15.5051 20.4694 13.4082 18.3724 13.4082 15.7857C13.4082 13.199 15.5051 11.102 18.0919 11.102C20.6786 11.102 22.7755 13.199 22.7755 15.7857ZM23.8776 15.7857C23.8776 18.9811 21.2872 21.5714 18.0919 21.5714C14.8965 21.5714 12.3062 18.9811 12.3062 15.7857C12.3062 12.5904 14.8965 10 18.0919 10C21.2872 10 23.8776 12.5904 23.8776 15.7857ZM9.8658 26.4319C12.3017 24.7368 15.1082 23.7755 18.0919 23.7755C21.0756 23.7755 23.882 24.7368 26.318 26.4319C26.5678 26.6057 26.9112 26.5441 27.085 26.2943C27.2588 26.0445 27.1972 25.7011 26.9474 25.5273C24.3434 23.7152 21.3201 22.6735 18.0919 22.6735C14.8637 22.6735 11.8404 23.7152 9.23633 25.5273C8.98654 25.7011 8.92496 26.0445 9.09878 26.2943C9.2726 26.5441 9.61601 26.6057 9.8658 26.4319Z" fill="#97FDC6"/>
</svg>