<svg width="34" height="37" viewBox="0 0 34 37" fill="none" xmlns="http://www.w3.org/2000/svg">
    <path d="M22.9909 10.8304V8.6561C22.9909 4.92718 19.968 1.9043 16.2391 1.9043V1.9043C12.5102 1.9043 9.4873 4.92718 9.4873 8.6561V10.8304" stroke="#5E81B6" stroke-width="2"/>
    <rect x="1" y="11.8306" width="31.1172" height="23.2657" rx="6" stroke="#5E81B6" stroke-width="2"/>
    <path fill-rule="evenodd" clip-rule="evenodd" d="M13.1016 21.8667C13.1016 19.7754 14.7969 18.0801 16.8882 18.0801C18.9795 18.0801 20.6748 19.7754 20.6748 21.8667C20.6748 23.256 19.6121 24.5067 18.3923 25.1777C18.3312 25.2112 18.2689 25.2416 18.2055 25.2691L18.2055 27.7865C18.2055 28.5153 17.6147 29.1062 16.8858 29.1062C16.157 29.1062 15.5661 28.5153 15.5661 27.7865L15.5661 25.2912C15.5432 25.2814 15.5203 25.2711 15.4977 25.2604C14.1868 24.641 13.1016 23.354 13.1016 21.8667Z" fill="#5E81B6"/>
</svg>