<svg width="56" height="113" viewBox="0 0 56 113" fill="none" xmlns="http://www.w3.org/2000/svg">
<path fill-rule="evenodd" clip-rule="evenodd" d="M26.7 14.895C26.7 21.909 21.014 27.595 14 27.595C6.98598 27.595 1.3 21.909 1.3 14.895C1.3 7.881 6.98598 2.19502 14 2.19502C21.014 2.19502 26.7 7.881 26.7 14.895ZM14 28.895C21.732 28.895 28 22.627 28 14.895C28 7.16303 21.732 0.89502 14 0.89502C6.26801 0.89502 0 7.16303 0 14.895C0 22.627 6.26801 28.895 14 28.895ZM18.9179 7.73754C18.5587 7.52208 18.0929 7.63855 17.8775 7.9977L10.0241 21.0882C9.80862 21.4473 9.9251 21.9132 10.2842 22.1286C10.6434 22.3441 11.1092 22.2276 11.3246 21.8685L19.178 8.77795C19.3935 8.41881 19.277 7.953 18.9179 7.73754ZM11.7744 11.5379C11.8161 12.4589 11.1034 13.2394 10.1824 13.2811C9.26137 13.3229 8.48091 12.6101 8.43915 11.6891C8.39739 10.7681 9.11015 9.98767 10.0311 9.94591C10.9521 9.90415 11.7326 10.6169 11.7744 11.5379ZM13.073 11.479C13.1473 13.1172 11.8795 14.5055 10.2412 14.5798C8.60303 14.6541 7.21477 13.3862 7.14049 11.748C7.0662 10.1098 8.33403 8.72152 9.97226 8.64724C11.6105 8.57296 12.9987 9.84079 13.073 11.479ZM18.7858 20.7174C19.7067 20.6756 20.4195 19.8952 20.3777 18.9742C20.336 18.0532 19.5555 17.3404 18.6345 17.3822C17.7135 17.4239 17.0008 18.2044 17.0425 19.1254C17.0843 20.0464 17.8648 20.7591 18.7858 20.7174ZM18.8446 22.0161C20.4829 21.9418 21.7507 20.5535 21.6764 18.9153C21.6021 17.2771 20.2139 16.0092 18.5756 16.0835C16.9374 16.1578 15.6696 17.5461 15.7439 19.1843C15.8182 20.8225 17.2064 22.0903 18.8446 22.0161Z" fill="#42538A"/>
<path fill-rule="evenodd" clip-rule="evenodd" d="M12.1552 28.9851C11.6229 29.1719 11.2169 29.5938 11.069 30.1139C11.0256 30.2664 10.9393 30.6992 10.8773 31.0757C10.8153 31.4522 10.7392 31.8872 10.7082 32.0424L10.6519 32.3246L10.2575 32.4705C10.0405 32.5507 9.61167 32.7291 9.30455 32.8667L8.74602 33.1171L7.90728 32.5146C7.44591 32.1832 6.98597 31.8698 6.88514 31.8183C6.4595 31.6007 5.78997 31.6159 5.31682 31.854C5.19145 31.917 4.63177 32.43 4.02307 33.04C2.75589 34.3096 2.68597 34.4189 2.68849 35.1279C2.69058 35.7034 2.74674 35.821 3.56012 36.9554L4.14411 37.7698L3.87216 38.3792C3.72257 38.7143 3.55781 39.124 3.50598 39.2897C3.45414 39.4554 3.38384 39.6178 3.3497 39.6506C3.31556 39.6835 2.81918 39.7884 2.24658 39.8838C1.0772 40.0786 0.765316 40.1947 0.437095 40.5578C0.325534 40.6812 0.181534 40.8961 0.117096 41.0353C0.00558904 41.2763 0 41.3681 0 42.9586V44.6288L0.152328 44.9388C0.319452 45.2789 0.613206 45.5752 0.95726 45.7505C1.09496 45.8208 1.60252 45.9364 2.2885 46.054C2.89831 46.1584 3.40043 46.244 3.40427 46.244C3.40816 46.2441 3.46696 46.3982 3.53501 46.5865C3.60301 46.7748 3.78154 47.2044 3.93168 47.5412L4.20466 48.1537L3.56931 49.0472C2.84558 50.0648 2.74624 50.2921 2.77621 50.862C2.80976 51.499 2.91813 51.6613 4.10669 52.8542C5.35304 54.105 5.5246 54.2137 6.24658 54.2089C6.79046 54.2054 6.88717 54.1585 8.01716 53.3501L8.85627 52.7497L9.41441 52.9961C9.72142 53.1316 10.1329 53.2985 10.3288 53.367C10.5247 53.4356 10.6917 53.4961 10.7001 53.5017C10.7084 53.5073 10.8001 54.0078 10.904 54.614C11.0208 55.2954 11.1361 55.8009 11.2063 55.9384C11.3818 56.2822 11.6783 56.5758 12.0186 56.7428L12.3288 56.895H14H15.6712L15.9814 56.7428C16.337 56.5682 16.6502 56.2482 16.8028 55.9034C16.8608 55.7722 16.9922 55.1814 17.0947 54.5904C17.1972 53.9993 17.2886 53.5102 17.298 53.5037C17.3074 53.497 17.5123 53.4214 17.7534 53.3357C17.9945 53.2501 18.4174 53.0758 18.6931 52.9486L19.1944 52.7174L20.0355 53.3188C21.1981 54.1501 21.2111 54.1562 21.8082 54.1561C22.5383 54.156 22.68 54.0666 23.925 52.8226C25.0936 51.6548 25.2344 51.4452 25.2742 50.8166C25.3086 50.2733 25.1852 49.9964 24.4448 48.957L23.8224 48.0832L24.0517 47.5881C24.1777 47.3158 24.3533 46.8886 24.4418 46.6389C24.5602 46.3044 24.6315 46.1782 24.7122 46.1601C24.7726 46.1466 25.2636 46.0624 25.8033 45.973C26.9101 45.7897 27.2366 45.6657 27.5629 45.3048C27.6745 45.1813 27.8184 44.9664 27.883 44.8272C27.9944 44.5861 28 44.4944 28 42.9038V41.2337L27.8477 40.9237C27.6821 40.5867 27.3871 40.2875 27.0521 40.1167C26.9275 40.0532 26.4195 39.9369 25.8304 39.837C25.2757 39.743 24.7726 39.6462 24.7124 39.622C24.6371 39.5918 24.5448 39.4171 24.4178 39.0642C24.316 38.7816 24.1496 38.3847 24.0479 38.1822C23.9462 37.9796 23.863 37.7824 23.863 37.744C23.863 37.7055 24.1314 37.2985 24.4594 36.8395C24.7873 36.3805 25.1007 35.9123 25.156 35.7991C25.3158 35.4716 25.3245 34.8449 25.1748 34.4434C25.0638 34.1455 24.9497 34.0123 23.9508 33.0143C22.7191 31.7836 22.5506 31.6682 21.9362 31.6326C21.3857 31.6007 21.1424 31.7088 20.1125 32.4426L19.2004 33.0925L18.6962 32.8556C18.4187 32.7254 17.9945 32.5511 17.7534 32.4684C17.5123 32.3856 17.2932 32.2987 17.2665 32.2753C17.2397 32.2518 17.1352 31.7572 17.0339 31.1762C16.8277 29.9921 16.7089 29.6757 16.3475 29.3495C15.8802 28.9276 15.8122 28.9143 14.0274 28.8992C12.6112 28.8872 12.4076 28.8966 12.1552 28.9851ZM15.2996 30.5418C15.3287 30.5795 15.4437 31.1647 15.5551 31.8424C15.6684 32.5307 15.8008 33.159 15.8553 33.2661C15.9727 33.4972 16.226 33.6326 16.9863 33.8705C17.2876 33.9649 17.8819 34.2125 18.3067 34.4207C18.8065 34.6657 19.145 34.7992 19.2655 34.7987C19.5066 34.7978 19.6981 34.6841 20.8146 33.8783C21.3228 33.5115 21.7792 33.2113 21.8289 33.2113C21.95 33.2113 23.6986 34.9665 23.6986 35.0881C23.6986 35.1408 23.3653 35.6512 22.958 36.2223C22.2044 37.2792 22.1096 37.4418 22.1096 37.678C22.1096 37.7513 22.2804 38.1578 22.489 38.5812C22.6979 39.0047 22.9704 39.6669 23.0947 40.0528C23.3169 40.742 23.4074 40.8943 23.6782 41.0335C23.7422 41.0664 24.334 41.1816 24.9932 41.2895C25.6525 41.3974 26.2472 41.5085 26.3151 41.5364C26.438 41.5872 26.4383 41.5901 26.4383 42.9038C26.4383 44.2177 26.438 44.2206 26.3151 44.2713C26.2472 44.2993 25.6571 44.4096 25.0037 44.5165C24.3502 44.6234 23.7563 44.7334 23.6838 44.7609C23.4927 44.8334 23.2725 45.1188 23.2025 45.3842C23.0572 45.9348 22.8403 46.487 22.4875 47.2048C22.2754 47.6364 22.1096 48.0458 22.1096 48.1378C22.1096 48.3732 22.2216 48.5638 23.002 49.6557C23.3852 50.1917 23.6986 50.6725 23.6986 50.7241C23.6986 50.8468 21.9451 52.5964 21.8222 52.5964C21.7704 52.5964 21.3268 52.3088 20.8365 51.9572C19.6316 51.0929 19.4918 51.0084 19.2685 51.0084C19.145 51.0084 18.811 51.1404 18.3067 51.3884C17.8819 51.5974 17.2283 51.8682 16.8542 51.9902C16.1556 52.2181 16.0161 52.2986 15.8864 52.5496C15.8451 52.6293 15.723 53.2332 15.6152 53.8913C15.5074 54.5494 15.3962 55.1434 15.3682 55.2112C15.3175 55.3341 15.3146 55.3344 14 55.3344C12.6854 55.3344 12.6825 55.3341 12.6317 55.2112C12.6037 55.1434 12.4933 54.5537 12.3864 53.9006C12.2794 53.2476 12.1693 52.654 12.1418 52.5816C12.0691 52.3906 11.7837 52.1705 11.5181 52.1005C10.9862 51.9604 10.4227 51.742 9.7434 51.4129C8.97617 51.0413 8.7555 50.9954 8.46285 51.1468C8.37386 51.1928 7.85359 51.55 7.30674 51.9408C6.75983 52.3314 6.2732 52.6512 6.22531 52.6512C6.10329 52.6512 4.35617 50.8956 4.35617 50.7729C4.35617 50.7181 4.69934 50.1933 5.11879 49.6066C5.68597 48.8134 5.89113 48.483 5.91902 48.3178C5.95304 48.1166 5.91973 48.0216 5.5645 47.3065C5.34883 46.8724 5.07375 46.2156 4.95314 45.8468C4.61874 44.824 4.68247 44.866 3.03139 44.5788C2.29326 44.4504 1.66055 44.3276 1.62548 44.3058C1.54164 44.2541 1.5343 41.6678 1.61781 41.6162C1.64865 41.5971 2.2343 41.487 2.91918 41.3716C3.60405 41.2561 4.22822 41.1369 4.30625 41.1065C4.50723 41.0284 4.72658 40.7478 4.79716 40.4783C4.94449 39.9156 5.21282 39.2144 5.50357 38.6326C5.88203 37.8751 5.91233 37.7664 5.81945 37.4985C5.77983 37.3844 5.40975 36.8178 4.99703 36.2394C4.58427 35.6611 4.24658 35.1549 4.24658 35.1147C4.24658 35.0745 4.6634 34.6277 5.17282 34.1217C6.03123 33.2692 6.10789 33.2066 6.21978 33.2664C6.2862 33.3019 6.77348 33.641 7.30274 34.02C8.29797 34.7326 8.58383 34.8813 8.83781 34.8183C8.91951 34.798 9.29606 34.6256 9.67463 34.4351C10.0531 34.2447 10.6633 33.9902 11.0306 33.8697C11.3978 33.7492 11.749 33.6195 11.8111 33.5816C12.0509 33.4349 12.1255 33.2004 12.3545 31.8739C12.4789 31.1534 12.5933 30.5434 12.6087 30.5186C12.624 30.4937 13.2239 30.4734 13.9418 30.4734C14.9211 30.4734 15.26 30.4904 15.2996 30.5418ZM13.471 36.8867C11.2103 37.082 9.21868 38.5647 8.37934 40.6774C7.84263 42.0285 7.83453 43.7077 8.35831 45.0669C8.96762 46.6482 10.2533 47.933 11.8356 48.542C12.8555 48.9345 14.1281 49.0373 15.218 48.8154C18.6162 48.1233 20.7323 44.6946 19.8367 41.3317C19.2017 38.9474 16.9959 37.0718 14.6301 36.9045C14.3891 36.8874 14.1425 36.8667 14.0822 36.8584C14.022 36.8501 13.7469 36.8628 13.471 36.8867ZM14.9863 38.5559C16.6401 38.9134 17.9711 40.2499 18.3621 41.9456C18.4786 42.4506 18.4765 43.3606 18.3576 43.8896C18.2325 44.446 17.8013 45.3149 17.4304 45.7578C16.0731 47.3789 13.7147 47.826 11.8666 46.8125C9.46077 45.4933 8.80477 42.3625 10.4764 40.1777C10.8935 39.6325 11.4012 39.2236 12.0548 38.9064C13.0112 38.4423 13.9447 38.3306 14.9863 38.5559Z" fill="#42538A"/>
<path fill-rule="evenodd" clip-rule="evenodd" d="M15.7925 82.4499C9.76501 82.4499 4.82117 77.3091 4.82117 70.8949C4.82117 64.4807 9.76501 59.34 15.7925 59.34C16.1791 59.34 16.4925 59.0266 16.4925 58.64C16.4925 58.2534 16.1791 57.94 15.7925 57.94C8.92823 57.94 3.42117 63.7727 3.42117 70.8949C3.42117 78.0172 8.92823 83.8499 15.7925 83.8499C16.1791 83.8499 16.4925 83.5365 16.4925 83.1499C16.4925 82.7633 16.1791 82.4499 15.7925 82.4499ZM24.3738 71.3896C24.6472 71.1162 24.6472 70.673 24.3738 70.3996L19.919 65.9449C19.6457 65.6715 19.2024 65.6715 18.9291 65.9449C18.6557 66.2182 18.6557 66.6614 18.9291 66.9348L22.1889 70.1946L10.5401 70.1946C10.1535 70.1946 9.84013 70.508 9.84013 70.8946C9.84013 71.2812 10.1535 71.5946 10.5401 71.5946L22.1889 71.5946L18.9291 74.8544C18.6557 75.1278 18.6557 75.571 18.9291 75.8444C19.2024 76.1177 19.6457 76.1177 19.919 75.8444L24.3738 71.3896Z" fill="#42538A"/>
<path fill-rule="evenodd" clip-rule="evenodd" d="M1.91058 88.3831C1.91058 86.4567 3.47224 84.895 5.39864 84.895H20.848C22.7744 84.895 24.3361 86.4567 24.3361 88.3831V96.9838C24.3361 97.3268 24.058 97.6049 23.7149 97.6049C23.3718 97.6049 23.0937 97.3268 23.0937 96.9838V88.3831C23.0937 87.1428 22.0883 86.1373 20.848 86.1373H5.39864C4.15835 86.1373 3.1529 87.1428 3.1529 88.3831V109.407C3.1529 110.647 4.15835 111.653 5.39864 111.653H13.1233C13.4664 111.653 13.7445 111.931 13.7445 112.274C13.7445 112.617 13.4664 112.895 13.1233 112.895H5.39864C3.47224 112.895 1.91058 111.333 1.91058 109.407V88.3831Z" fill="#42538A"/>
<path fill-rule="evenodd" clip-rule="evenodd" d="M25.8631 101.601C26.1279 101.819 26.1658 102.211 25.9478 102.476L18.6039 111.395C18.4912 111.532 18.3253 111.614 18.1481 111.621C17.9709 111.628 17.7993 111.558 17.6764 111.43L12.7805 106.334C12.5429 106.086 12.5508 105.693 12.7982 105.455C13.0456 105.218 13.4388 105.226 13.6764 105.473L18.0887 110.066L24.9887 101.686C25.2068 101.421 25.5982 101.383 25.8631 101.601Z" fill="#42538A"/>
<path fill-rule="evenodd" clip-rule="evenodd" d="M6.36958 91.0906C6.36958 90.7476 6.64768 90.4695 6.99074 90.4695H20.3696C20.7126 90.4695 20.9907 90.7476 20.9907 91.0906C20.9907 91.4337 20.7126 91.7118 20.3696 91.7118H6.99074C6.64768 91.7118 6.36958 91.4337 6.36958 91.0906Z" fill="#42538A"/>
<path fill-rule="evenodd" clip-rule="evenodd" d="M6.36958 95.5504C6.36958 95.2073 6.64768 94.9292 6.99074 94.9292H20.3696C20.7126 94.9292 20.9907 95.2073 20.9907 95.5504C20.9907 95.8934 20.7126 96.1715 20.3696 96.1715H6.99074C6.64768 96.1715 6.36958 95.8934 6.36958 95.5504Z" fill="#42538A"/>
<path fill-rule="evenodd" clip-rule="evenodd" d="M6.36958 100.01C6.36958 99.667 6.64768 99.3889 6.99074 99.3889H15.91C16.253 99.3889 16.5311 99.667 16.5311 100.01C16.5311 100.353 16.253 100.631 15.91 100.631H6.99074C6.64768 100.631 6.36958 100.353 6.36958 100.01Z" fill="#42538A"/>
<path fill-rule="evenodd" clip-rule="evenodd" d="M54.7 14.895C54.7 21.909 49.014 27.595 42 27.595C34.986 27.595 29.3 21.909 29.3 14.895C29.3 7.881 34.986 2.19502 42 2.19502C49.014 2.19502 54.7 7.881 54.7 14.895ZM42 28.895C49.732 28.895 56 22.627 56 14.895C56 7.16303 49.732 0.89502 42 0.89502C34.268 0.89502 28 7.16303 28 14.895C28 22.627 34.268 28.895 42 28.895ZM46.9179 7.73754C46.5587 7.52208 46.0929 7.63855 45.8775 7.9977L38.0241 21.0882C37.8086 21.4473 37.9251 21.9132 38.2842 22.1286C38.6434 22.3441 39.1092 22.2276 39.3247 21.8685L47.178 8.77795C47.3935 8.41881 47.277 7.953 46.9179 7.73754ZM39.7744 11.5379C39.8161 12.4589 39.1034 13.2394 38.1824 13.2811C37.2614 13.3229 36.4809 12.6101 36.4392 11.6891C36.3974 10.7681 37.1101 9.98767 38.0311 9.94591C38.9521 9.90415 39.7326 10.6169 39.7744 11.5379ZM41.073 11.479C41.1473 13.1172 39.8795 14.5055 38.2412 14.5798C36.603 14.6541 35.2148 13.3862 35.1405 11.748C35.0662 10.1098 36.334 8.72152 37.9723 8.64724C39.6105 8.57296 40.9987 9.84079 41.073 11.479ZM46.7858 20.7174C47.7067 20.6756 48.4195 19.8952 48.3777 18.9742C48.336 18.0532 47.5555 17.3404 46.6345 17.3822C45.7135 17.4239 45.0008 18.2044 45.0425 19.1254C45.0843 20.0464 45.8648 20.7591 46.7858 20.7174ZM46.8446 22.0161C48.4829 21.9418 49.7507 20.5535 49.6764 18.9153C49.6021 17.2771 48.2139 16.0092 46.5756 16.0835C44.9374 16.1578 43.6696 17.5461 43.7439 19.1843C43.8182 20.8225 45.2064 22.0903 46.8446 22.0161Z" fill="#5E81B6"/>
<path fill-rule="evenodd" clip-rule="evenodd" d="M40.1552 28.9851C39.6229 29.1719 39.2169 29.5938 39.069 30.1139C39.0256 30.2664 38.9393 30.6992 38.8773 31.0757C38.8153 31.4522 38.7392 31.8872 38.7082 32.0424L38.6519 32.3246L38.2575 32.4705C38.0405 32.5507 37.6117 32.7291 37.3046 32.8667L36.746 33.1171L35.9073 32.5146C35.4459 32.1832 34.986 31.8698 34.8851 31.8183C34.4595 31.6007 33.79 31.6159 33.3168 31.854C33.1915 31.917 32.6318 32.43 32.0231 33.04C30.7559 34.3096 30.686 34.4189 30.6885 35.1279C30.6906 35.7034 30.7467 35.821 31.5601 36.9554L32.1441 37.7698L31.8722 38.3792C31.7226 38.7143 31.5578 39.124 31.506 39.2897C31.4541 39.4554 31.3838 39.6178 31.3497 39.6506C31.3156 39.6835 30.8192 39.7884 30.2466 39.8838C29.0772 40.0786 28.7653 40.1947 28.4371 40.5578C28.3255 40.6812 28.1815 40.8961 28.1171 41.0353C28.0056 41.2763 28 41.3681 28 42.9586V44.6288L28.1523 44.9388C28.3195 45.2789 28.6132 45.5752 28.9573 45.7505C29.095 45.8208 29.6025 45.9364 30.2885 46.054C30.8983 46.1584 31.4004 46.244 31.4043 46.244C31.4082 46.2441 31.467 46.3982 31.535 46.5865C31.603 46.7748 31.7815 47.2044 31.9317 47.5412L32.2047 48.1537L31.5693 49.0472C30.8456 50.0648 30.7462 50.2921 30.7762 50.862C30.8098 51.499 30.9181 51.6613 32.1067 52.8542C33.353 54.105 33.5246 54.2137 34.2466 54.2089C34.7905 54.2054 34.8872 54.1585 36.0172 53.3501L36.8563 52.7497L37.4144 52.9961C37.7214 53.1316 38.1329 53.2985 38.3288 53.367C38.5247 53.4356 38.6917 53.4961 38.7001 53.5017C38.7084 53.5073 38.8001 54.0078 38.904 54.614C39.0208 55.2954 39.1361 55.8009 39.2063 55.9384C39.3818 56.2822 39.6783 56.5758 40.0186 56.7428L40.3288 56.895H42H43.6712L43.9814 56.7428C44.337 56.5682 44.6502 56.2482 44.8028 55.9034C44.8608 55.7722 44.9922 55.1814 45.0947 54.5904C45.1972 53.9993 45.2886 53.5102 45.298 53.5037C45.3074 53.497 45.5123 53.4214 45.7534 53.3357C45.9945 53.2501 46.4174 53.0758 46.6931 52.9486L47.1944 52.7174L48.0355 53.3188C49.1981 54.1501 49.2111 54.1562 49.8082 54.1561C50.5383 54.156 50.68 54.0666 51.925 52.8226C53.0936 51.6548 53.2344 51.4452 53.2742 50.8166C53.3086 50.2733 53.1852 49.9964 52.4448 48.957L51.8224 48.0832L52.0517 47.5881C52.1777 47.3158 52.3533 46.8886 52.4418 46.6389C52.5602 46.3044 52.6315 46.1782 52.7122 46.1601C52.7726 46.1466 53.2636 46.0624 53.8033 45.973C54.9101 45.7897 55.2366 45.6657 55.5629 45.3048C55.6745 45.1813 55.8184 44.9664 55.883 44.8272C55.9944 44.5861 56 44.4944 56 42.9038V41.2337L55.8477 40.9237C55.6821 40.5867 55.3871 40.2875 55.0521 40.1167C54.9275 40.0532 54.4195 39.9369 53.8304 39.837C53.2757 39.743 52.7726 39.6462 52.7124 39.622C52.6371 39.5918 52.5448 39.4171 52.4178 39.0642C52.316 38.7816 52.1496 38.3847 52.0479 38.1822C51.9462 37.9796 51.863 37.7824 51.863 37.744C51.863 37.7055 52.1314 37.2985 52.4594 36.8395C52.7873 36.3805 53.1007 35.9123 53.156 35.7991C53.3158 35.4716 53.3245 34.8449 53.1748 34.4434C53.0638 34.1455 52.9497 34.0123 51.9508 33.0143C50.7191 31.7836 50.5506 31.6682 49.9362 31.6326C49.3857 31.6007 49.1424 31.7088 48.1125 32.4426L47.2004 33.0925L46.6962 32.8556C46.4187 32.7254 45.9945 32.5511 45.7534 32.4684C45.5123 32.3856 45.2932 32.2987 45.2665 32.2753C45.2397 32.2518 45.1352 31.7572 45.0339 31.1762C44.8277 29.9921 44.7089 29.6757 44.3475 29.3495C43.8802 28.9276 43.8122 28.9143 42.0274 28.8992C40.6112 28.8872 40.4076 28.8966 40.1552 28.9851ZM43.2996 30.5418C43.3287 30.5795 43.4437 31.1647 43.5551 31.8424C43.6684 32.5307 43.8008 33.159 43.8553 33.2661C43.9727 33.4972 44.226 33.6326 44.9863 33.8705C45.2876 33.9649 45.8819 34.2125 46.3067 34.4207C46.8065 34.6657 47.145 34.7992 47.2655 34.7987C47.5066 34.7978 47.6981 34.6841 48.8146 33.8783C49.3228 33.5115 49.7792 33.2113 49.8289 33.2113C49.95 33.2113 51.6986 34.9665 51.6986 35.0881C51.6986 35.1408 51.3653 35.6512 50.958 36.2223C50.2044 37.2792 50.1096 37.4418 50.1096 37.678C50.1096 37.7513 50.2804 38.1578 50.489 38.5812C50.6979 39.0047 50.9704 39.6669 51.0947 40.0528C51.3169 40.742 51.4074 40.8943 51.6782 41.0335C51.7422 41.0664 52.334 41.1816 52.9932 41.2895C53.6525 41.3974 54.2472 41.5085 54.3151 41.5364C54.438 41.5872 54.4383 41.5901 54.4383 42.9038C54.4383 44.2177 54.438 44.2206 54.3151 44.2713C54.2472 44.2993 53.6571 44.4096 53.0037 44.5165C52.3502 44.6234 51.7563 44.7334 51.6838 44.7609C51.4927 44.8334 51.2725 45.1188 51.2025 45.3842C51.0572 45.9348 50.8403 46.487 50.4875 47.2048C50.2754 47.6364 50.1096 48.0458 50.1096 48.1378C50.1096 48.3732 50.2216 48.5638 51.002 49.6557C51.3852 50.1917 51.6986 50.6725 51.6986 50.7241C51.6986 50.8468 49.9451 52.5964 49.8222 52.5964C49.7704 52.5964 49.3268 52.3088 48.8365 51.9572C47.6316 51.0929 47.4918 51.0084 47.2685 51.0084C47.145 51.0084 46.811 51.1404 46.3067 51.3884C45.8819 51.5974 45.2283 51.8682 44.8542 51.9902C44.1556 52.2181 44.0161 52.2986 43.8864 52.5496C43.8451 52.6293 43.723 53.2332 43.6152 53.8913C43.5074 54.5494 43.3962 55.1434 43.3682 55.2112C43.3175 55.3341 43.3146 55.3344 42 55.3344C40.6854 55.3344 40.6825 55.3341 40.6317 55.2112C40.6037 55.1434 40.4933 54.5537 40.3864 53.9006C40.2794 53.2476 40.1693 52.654 40.1418 52.5816C40.0691 52.3906 39.7837 52.1705 39.5181 52.1005C38.9862 51.9604 38.4227 51.742 37.7434 51.4129C36.9762 51.0413 36.7555 50.9954 36.4628 51.1468C36.3739 51.1928 35.8536 51.55 35.3067 51.9408C34.7598 52.3314 34.2732 52.6512 34.2253 52.6512C34.1033 52.6512 32.3562 50.8956 32.3562 50.7729C32.3562 50.7181 32.6993 50.1933 33.1188 49.6066C33.686 48.8134 33.8911 48.483 33.919 48.3178C33.953 48.1166 33.9197 48.0216 33.5645 47.3065C33.3488 46.8724 33.0738 46.2156 32.9531 45.8468C32.6187 44.824 32.6825 44.866 31.0314 44.5788C30.2933 44.4504 29.6606 44.3276 29.6255 44.3058C29.5416 44.2541 29.5343 41.6678 29.6178 41.6162C29.6487 41.5971 30.2343 41.487 30.9192 41.3716C31.604 41.2561 32.2282 41.1369 32.3062 41.1065C32.5072 41.0284 32.7266 40.7478 32.7972 40.4783C32.9445 39.9156 33.2128 39.2144 33.5036 38.6326C33.882 37.8751 33.9123 37.7664 33.8195 37.4985C33.7798 37.3844 33.4098 36.8178 32.997 36.2394C32.5843 35.6611 32.2466 35.1549 32.2466 35.1147C32.2466 35.0745 32.6634 34.6277 33.1728 34.1217C34.0312 33.2692 34.1079 33.2066 34.2198 33.2664C34.2862 33.3019 34.7735 33.641 35.3027 34.02C36.298 34.7326 36.5838 34.8813 36.8378 34.8183C36.9195 34.798 37.2961 34.6256 37.6746 34.4351C38.0531 34.2447 38.6633 33.9902 39.0306 33.8697C39.3978 33.7492 39.749 33.6195 39.8111 33.5816C40.0509 33.4349 40.1255 33.2004 40.3545 31.8739C40.4789 31.1534 40.5933 30.5434 40.6087 30.5186C40.624 30.4937 41.2239 30.4734 41.9418 30.4734C42.9211 30.4734 43.26 30.4904 43.2996 30.5418ZM41.471 36.8867C39.2103 37.082 37.2187 38.5647 36.3793 40.6774C35.8426 42.0285 35.8345 43.7077 36.3583 45.0669C36.9676 46.6482 38.2533 47.933 39.8356 48.542C40.8555 48.9345 42.1281 49.0373 43.218 48.8154C46.6162 48.1233 48.7323 44.6946 47.8367 41.3317C47.2017 38.9474 44.9959 37.0718 42.6301 36.9045C42.3891 36.8874 42.1425 36.8667 42.0822 36.8584C42.022 36.8501 41.7469 36.8628 41.471 36.8867ZM42.9863 38.5559C44.6401 38.9134 45.9711 40.2499 46.3621 41.9456C46.4786 42.4506 46.4765 43.3606 46.3576 43.8896C46.2325 44.446 45.8013 45.3149 45.4304 45.7578C44.0731 47.3789 41.7147 47.826 39.8666 46.8125C37.4608 45.4933 36.8048 42.3625 38.4764 40.1777C38.8935 39.6325 39.4012 39.2236 40.0548 38.9064C41.0112 38.4423 41.9447 38.3306 42.9863 38.5559Z" fill="#5E81B6"/>
<path fill-rule="evenodd" clip-rule="evenodd" d="M43.7925 82.4499C37.765 82.4499 32.8212 77.3091 32.8212 70.8949C32.8212 64.4807 37.765 59.34 43.7925 59.34C44.1791 59.34 44.4925 59.0266 44.4925 58.64C44.4925 58.2534 44.1791 57.94 43.7925 57.94C36.9282 57.94 31.4212 63.7727 31.4212 70.8949C31.4212 78.0172 36.9282 83.8499 43.7925 83.8499C44.1791 83.8499 44.4925 83.5365 44.4925 83.1499C44.4925 82.7633 44.1791 82.4499 43.7925 82.4499ZM52.3738 71.3896C52.6472 71.1162 52.6472 70.673 52.3738 70.3996L47.919 65.9449C47.6457 65.6715 47.2024 65.6715 46.9291 65.9449C46.6557 66.2182 46.6557 66.6614 46.9291 66.9348L50.1889 70.1946L38.5401 70.1946C38.1535 70.1946 37.8401 70.508 37.8401 70.8946C37.8401 71.2812 38.1535 71.5946 38.5401 71.5946L50.1889 71.5946L46.9291 74.8544C46.6557 75.1278 46.6557 75.571 46.9291 75.8444C47.2024 76.1177 47.6457 76.1177 47.919 75.8444L52.3738 71.3896Z" fill="#5E81B6"/>
<path fill-rule="evenodd" clip-rule="evenodd" d="M29.9106 88.3831C29.9106 86.4567 31.4722 84.895 33.3986 84.895H48.848C50.7744 84.895 52.3361 86.4567 52.3361 88.3831V96.9838C52.3361 97.3268 52.058 97.6049 51.7149 97.6049C51.3718 97.6049 51.0937 97.3268 51.0937 96.9838V88.3831C51.0937 87.1428 50.0883 86.1373 48.848 86.1373H33.3986C32.1584 86.1373 31.1529 87.1428 31.1529 88.3831V109.407C31.1529 110.647 32.1584 111.653 33.3986 111.653H41.1233C41.4664 111.653 41.7445 111.931 41.7445 112.274C41.7445 112.617 41.4664 112.895 41.1233 112.895H33.3986C31.4722 112.895 29.9106 111.333 29.9106 109.407V88.3831Z" fill="#5E81B6"/>
<path fill-rule="evenodd" clip-rule="evenodd" d="M53.8631 101.601C54.1279 101.819 54.1658 102.211 53.9478 102.476L46.6039 111.395C46.4912 111.532 46.3253 111.614 46.1481 111.621C45.9709 111.628 45.7993 111.558 45.6764 111.43L40.7805 106.334C40.5429 106.086 40.5508 105.693 40.7982 105.455C41.0456 105.218 41.4388 105.226 41.6764 105.473L46.0887 110.066L52.9887 101.686C53.2068 101.421 53.5982 101.383 53.8631 101.601Z" fill="#5E81B6"/>
<path fill-rule="evenodd" clip-rule="evenodd" d="M34.3696 91.0906C34.3696 90.7476 34.6477 90.4695 34.9907 90.4695H48.3696C48.7126 90.4695 48.9907 90.7476 48.9907 91.0906C48.9907 91.4337 48.7126 91.7118 48.3696 91.7118H34.9907C34.6477 91.7118 34.3696 91.4337 34.3696 91.0906Z" fill="#5E81B6"/>
<path fill-rule="evenodd" clip-rule="evenodd" d="M34.3696 95.5504C34.3696 95.2073 34.6477 94.9292 34.9907 94.9292H48.3696C48.7126 94.9292 48.9907 95.2073 48.9907 95.5504C48.9907 95.8934 48.7126 96.1715 48.3696 96.1715H34.9907C34.6477 96.1715 34.3696 95.8934 34.3696 95.5504Z" fill="#5E81B6"/>
<path fill-rule="evenodd" clip-rule="evenodd" d="M34.3696 100.01C34.3696 99.667 34.6477 99.3889 34.9907 99.3889H43.91C44.253 99.3889 44.5311 99.667 44.5311 100.01C44.5311 100.353 44.253 100.631 43.91 100.631H34.9907C34.6477 100.631 34.3696 100.353 34.3696 100.01Z" fill="#5E81B6"/>
</svg>
