<svg width="22" height="16" viewBox="0 0 22 16" fill="none" xmlns="http://www.w3.org/2000/svg">
    <path fill-rule="evenodd" clip-rule="evenodd" d="M11.7614 10.6745L6.57614 15.7657C6.25794 16.0781 5.74205 16.0781 5.42386 15.7657L0.238643 10.6745C-0.0795483 10.3621 -0.0795483 9.85556 0.238643 9.54315C0.556834 9.23073 1.07272 9.23073 1.39091 9.54315L5.18522 13.2686L5.18522 0.8C5.18522 0.358172 5.55001 -2.81938e-07 6 -2.62268e-07C6.44999 -2.42599e-07 6.81478 0.358172 6.81478 0.8L6.81478 13.2686L10.6091 9.54315C10.9273 9.23073 11.4432 9.23073 11.7614 9.54315C12.0795 9.85557 12.0795 10.3621 11.7614 10.6745Z" fill="#97FDC6"/>
    <path fill-rule="evenodd" clip-rule="evenodd" d="M10.2386 5.32548L15.4239 0.234314C15.7421 -0.0781052 16.2579 -0.0781051 16.5761 0.234314L21.7614 5.32548C22.0795 5.6379 22.0795 6.14444 21.7614 6.45686C21.4432 6.76927 20.9273 6.76927 20.6091 6.45686L16.8148 2.73137L16.8148 15.2C16.8148 15.6418 16.45 16 16 16C15.55 16 15.1852 15.6418 15.1852 15.2L15.1852 2.73137L11.3909 6.45685C11.0727 6.76927 10.5568 6.76927 10.2386 6.45685C9.92045 6.14443 9.92045 5.6379 10.2386 5.32548Z" fill="#97FDC6"/>
</svg>