<svg width="16" height="12" viewBox="0 0 16 12" fill="none" xmlns="http://www.w3.org/2000/svg">
    <path d="M9.03192 0.455455L14.8747 5.52847C15.1054 5.72878 15.1041 6.08734 14.8719 6.28596L9.02913 11.2842C8.7047 11.5617 8.2041 11.3312 8.20411 10.9042L8.20416 8.5614C8.20416 8.31731 8.02804 8.10697 7.78541 8.08033C5.65869 7.84683 3.62224 8.57251 2.31073 10.0805C1.93414 10.5135 1.63108 10.9626 1.34619 11.4259C1.09301 11.8377 0.496287 11.6951 0.500017 11.2118C0.51777 8.91155 1.12181 6.83977 3.08779 5.12673C4.86692 3.57651 6.64407 3.37874 7.75381 3.28563C8.00976 3.26415 8.20422 3.05115 8.20421 2.7943L8.20411 0.833027C8.20409 0.404339 8.70822 0.1744 9.03192 0.455455Z" fill="#42538A"/>
</svg>